<svg id="组_161" data-name="组 161" xmlns="http://www.w3.org/2000/svg" width="250" height="165" viewBox="0 0 250 165">
  <path id="路径_132" data-name="路径 132" d="M0,315.59S7.734,228.868,50.36,292.1c0,0,11.331,13.912,36.871-18.97s64.389-47.7,88.129,8.13c0,0,7.644,22.042,25.18-2.71s35.522-31.165,49.46,34.327Z" transform="translate(0 -204.807)" fill="rgba(197,223,255,0.24)"/>
  <path id="路径_133" data-name="路径 133" d="M1286.12,1003.546c0,1,3.923,1.807,8.762,1.807s8.762-.809,8.762-1.807-3.923-1.807-8.762-1.807S1286.12,1002.548,1286.12,1003.546Z" transform="translate(-1078.487 -840.353)" fill="#d0e5ff"/>
  <path id="路径_134" data-name="路径 134" d="M1241.713,875.992s-16.441-21.048-4.155-24.21S1242.074,874.727,1241.713,875.992Z" transform="translate(-1033.803 -714.515)" fill="#c5dfff"/>
  <path id="路径_135" data-name="路径 135" d="M1283.279,904.155s-4.155-21.138,8.4-17.8S1279.665,913.1,1283.279,904.155Z" transform="translate(-1075.555 -743.401)" fill="rgba(197,223,255,0.7)"/>
  <path id="路径_136" data-name="路径 136" d="M967.791,678.266c0,.848,3.357,1.536,7.5,1.536s7.5-.688,7.5-1.536-3.357-1.536-7.5-1.536S967.791,677.418,967.791,678.266Z" transform="translate(-811.451 -567.702)" fill="#d0e5ff"/>
  <path id="路径_137" data-name="路径 137" d="M928.387,571.271s-14.183-17.706-3.613-20.325S928.749,570.188,928.387,571.271Z" transform="translate(-772.086 -462.08)" fill="rgba(197,223,255,0.7)"/>
  <path id="路径_138" data-name="路径 138" d="M964.385,594.831s-3.523-17.8,7.227-14.905S961.313,602.419,964.385,594.831Z" transform="translate(-808.119 -486.293)" fill="#c5dfff"/>
  <path id="路径_139" data-name="路径 139" d="M475.826,715.961c0,2,19.413,3.613,43.361,3.613s43.361-1.618,43.361-3.613-19.413-3.613-43.361-3.613S475.826,713.966,475.826,715.961Z" transform="translate(-399.121 -597.604)" fill="#e9f3ff"/>
  <path id="路径_140" data-name="路径 140" d="M340.309,55.652H452.324a3.613,3.613,0,0,1,3.613,3.613v72.268a3.613,3.613,0,0,1-3.613,3.613H340.309a3.613,3.613,0,0,1-3.613-3.613V59.265a3.613,3.613,0,0,1,3.613-3.613Z" transform="translate(-282.512 -46.619)" fill="rgba(197,223,255,0.4)"/>
  <path id="路径_141" data-name="路径 141" d="M418.223,0H530.237a3.613,3.613,0,0,1,3.613,3.613V75.881a3.613,3.613,0,0,1-3.613,3.613H418.223a3.613,3.613,0,0,1-3.613-3.613V3.613A3.613,3.613,0,0,1,418.223,0Z" transform="translate(-347.886)" fill="#abd9ff"/>
  <path id="路径_142" data-name="路径 142" d="M501.7,111.3h23.487a3.613,3.613,0,0,1,3.613,3.613v34.327a3.613,3.613,0,0,1-3.613,3.613H501.7a3.613,3.613,0,0,1-3.613-3.613V114.917A3.613,3.613,0,0,1,501.7,111.3Z" transform="translate(-417.652 -93.237)" fill="#87c3ff"/>
  <path id="路径_143" data-name="路径 143" d="M514.873,222.786c0-.271-.09-.632-.09-.9a12.647,12.647,0,0,1,25.294,0,3.072,3.072,0,0,1-.09.9Zm5.33-20.777a7.227,7.227,0,1,1,7.227,7.227A7.227,7.227,0,0,1,520.2,202.009Z" transform="translate(-431.641 -163.443)" fill="#51a6f9"/>
  <path id="路径_144" data-name="路径 144" d="M787.218,135.694H746.568a3.613,3.613,0,0,1-3.613-3.613v-1.807a3.613,3.613,0,0,1,3.613-3.613h40.651a3.613,3.613,0,0,1,3.613,3.613v1.807A3.613,3.613,0,0,1,787.218,135.694Zm0-15.357H746.568a3.613,3.613,0,0,1-3.613-3.613v-1.807a3.613,3.613,0,0,1,3.613-3.613h40.651a3.613,3.613,0,0,1,3.613,3.613v1.807A3.613,3.613,0,0,1,787.218,120.338Zm-40.651,21.68h23.487a3.613,3.613,0,0,1,3.613,3.613v1.807a3.613,3.613,0,0,1-3.613,3.613H746.568a3.613,3.613,0,0,1-3.613-3.613v-1.807a3.613,3.613,0,0,1,3.613-3.613Z" transform="translate(-623.028 -93.237)" fill="#87c3ff"/>
  <path id="路径_145" data-name="路径 145" d="M985.439,309.265m-19.874,0a19.874,19.874,0,1,0,19.874-19.874,19.874,19.874,0,0,0-19.874,19.874Z" transform="translate(-809.672 -242.869)" fill="#27cf8c"/>
  <path id="路径_146" data-name="路径 146" d="M1041.817,364.52l-10.479,14a1.427,1.427,0,0,1-1.987.271l-8.853-6.414a1.283,1.283,0,0,1-.181-1.987,1.4,1.4,0,0,1,1.9-.09l7.678,5.6,9.666-12.828a1.427,1.427,0,0,1,1.807-.452,1.265,1.265,0,0,1,.452,1.9Z" transform="translate(-855.19 -304.113)" fill="#fff"/>
</svg>
